<svg width="128" height="128" viewBox="0 0 128 128" fill="none" xmlns="http://www.w3.org/2000/svg">
<g clip-path="url(#clip0_1_2)">
<circle cx="64" cy="64" r="63.5" stroke="#96F2FF"/>
<circle cx="109" cy="109" r="4" fill="#96F2FF"/>
<path d="M64.48 67.12C64.1613 67.08 63.8388 67.08 63.52 67.12C60.1278 67.0058 56.9128 65.5775 54.5542 63.1368C52.1956 60.6961 50.8781 57.4341 50.88 54.04C50.88 46.8 56.72 40.92 64 40.92C67.4378 40.914 70.7402 42.2592 73.1953 44.6656C75.6504 47.072 77.0616 50.3468 77.1246 53.7839C77.1875 57.2211 75.8973 60.5454 73.5319 63.0401C71.1666 65.5348 67.9157 67 64.48 67.12ZM90.96 93.52C83.6091 100.276 73.9842 104.018 64 104C53.6 104 44.16 100.04 37.04 93.52C37.44 89.76 39.84 86.08 44.12 83.2C55.08 75.92 73 75.92 83.88 83.2C88.16 86.08 90.56 89.76 90.96 93.52Z" stroke="#96F2FF" stroke-width="1.5" stroke-linecap="round" stroke-linejoin="round"/>
<path d="M64 104C86.092 104 104 86.092 104 64C104 41.908 86.092 24 64 24C41.908 24 24 41.908 24 64C24 86.092 41.908 104 64 104Z" stroke="#96F2FF" stroke-width="1.5" stroke-linecap="round" stroke-linejoin="round"/>
</g>
<defs>
<clipPath id="clip0_1_2">
<rect width="128" height="128" fill="white"/>
</clipPath>
</defs>
</svg>
